<?xml version="1.0" encoding="UTF-8"?>
<svg xmlns="http://www.w3.org/2000/svg" xmlns:xlink="http://www.w3.org/1999/xlink" viewBox="0 0 64 64" width="64px" height="64px">
<g id="surface150295088">
<path style="fill-rule:nonzero;fill:rgb(19.607843%,74.509805%,65.098041%);fill-opacity:1;stroke-width:1;stroke-linecap:butt;stroke-linejoin:round;stroke:rgb(100%,100%,100%);stroke-opacity:1;stroke-miterlimit:10;" d="M 85.999999 169.350687 C 39.973351 169.350687 2.64931 132.026646 2.64931 85.999999 C 2.64931 39.973351 39.973351 2.64931 85.999999 2.64931 C 132.026646 2.64931 169.350687 39.973351 169.350687 85.999999 C 169.350687 132.026646 132.026646 169.350687 85.999999 169.350687 Z M 85.999999 169.350687 " transform="matrix(0.36986,0,0,0.36986,0.192,0.192)"/>
<path style="fill-rule:nonzero;fill:rgb(100%,100%,100%);fill-opacity:1;stroke-width:1;stroke-linecap:butt;stroke-linejoin:round;stroke:rgb(100%,100%,100%);stroke-opacity:1;stroke-miterlimit:10;" d="M 128.393519 67.485838 C 128.361835 67.528083 125.879902 68.594786 124.528041 69.165103 L 124.528041 69.207348 C 124.528041 69.207348 124.601971 69.207348 124.728708 69.165103 C 124.728708 69.165103 124.464673 69.239033 123.957725 69.439699 C 123.788742 69.534752 123.693689 69.576998 123.693689 69.576998 C 123.619759 69.576998 123.619759 69.576998 123.588075 69.576998 C 120.704809 70.717631 112.403536 74.878828 99.972751 88.017229 C 84.553085 104.271247 81.627573 112.371852 81.595888 112.435221 C 80.898835 115.255119 78.607008 117.409647 75.723742 117.916595 C 75.280162 117.979964 74.847144 118.011648 74.44581 118.011648 C 71.995562 118.011648 69.672051 116.807647 68.299067 114.727048 C 68.225137 114.621434 62.553657 106.151179 56.301299 99.909382 C 50.18624 93.762639 43.067846 89.358529 43.004477 89.326844 C 39.540333 87.172316 38.463069 82.641468 40.585913 79.177324 C 42.729881 75.681496 47.271289 74.614793 50.724872 76.727076 C 51.062837 76.927743 59.364109 82.039468 66.788784 89.464143 C 69.207348 91.840461 71.488614 94.501938 73.505844 96.952186 C 76.790444 92.115058 81.764871 85.767647 89.326844 77.80434 C 107.50304 58.582565 119.025544 55.224035 121.61309 54.685402 C 125.943271 53.819366 129.935486 53.006137 131.889347 58.086178 C 133.367946 61.846042 132.121699 65.880503 128.393519 67.485838 Z M 128.393519 67.485838 " transform="matrix(0.36986,0,0,0.36986,0.192,0.192)"/>
<path style=" stroke:none;fill-rule:nonzero;fill:rgb(19.607843%,74.509805%,65.098041%);fill-opacity:1;" d="M 62.828125 32 C 62.828125 14.976562 49.023438 1.171875 32 1.171875 C 14.976562 1.171875 1.171875 14.976562 1.171875 32 C 1.171875 49.023438 14.976562 62.828125 32 62.828125 C 49.023438 62.828125 62.828125 49.023438 62.828125 32 Z M 62.828125 32 "/>
<path style=" stroke:none;fill-rule:nonzero;fill:rgb(100%,100%,100%);fill-opacity:1;" d="M 48.972656 21.675781 C 48.25 19.796875 46.773438 20.097656 45.171875 20.417969 C 44.214844 20.617188 39.953125 21.859375 33.230469 28.96875 C 30.433594 31.914062 28.59375 34.261719 27.378906 36.050781 C 26.632812 35.144531 25.789062 34.160156 24.894531 33.28125 C 22.148438 30.535156 19.078125 28.644531 18.953125 28.570312 C 17.675781 27.789062 15.996094 28.183594 15.203125 29.476562 C 14.417969 30.757812 14.816406 32.433594 16.097656 33.230469 C 16.121094 33.242188 18.753906 34.871094 21.015625 37.144531 C 23.328125 39.453125 25.425781 42.585938 25.453125 42.625 C 25.960938 43.394531 26.820312 43.839844 27.726562 43.839844 C 27.875 43.839844 28.035156 43.828125 28.199219 43.804688 C 29.265625 43.617188 30.113281 42.820312 30.371094 41.777344 C 30.382812 41.753906 31.464844 38.757812 37.167969 32.746094 C 41.765625 27.886719 44.835938 26.347656 45.902344 25.925781 C 45.914062 25.925781 45.914062 25.925781 45.941406 25.925781 C 45.941406 25.925781 45.976562 25.910156 46.039062 25.875 C 46.226562 25.800781 46.324219 25.773438 46.324219 25.773438 C 46.277344 25.789062 46.25 25.789062 46.25 25.789062 L 46.25 25.773438 C 46.75 25.5625 47.667969 25.167969 47.679688 25.152344 C 49.058594 24.558594 49.519531 23.066406 48.972656 21.675781 Z M 48.972656 21.675781 "/>
</g>
</svg>
