<?xml version="1.0" encoding="UTF-8"?>
<svg xmlns="http://www.w3.org/2000/svg" xmlns:xlink="http://www.w3.org/1999/xlink" viewBox="0 0 64 64" width="64px" height="64px">
<g id="surface150310203">
<path style=" stroke:none;fill-rule:nonzero;fill:rgb(80.000001%,80.000001%,80.000001%);fill-opacity:1;" d="M 31.679688 32.320312 L 31.679688 31.679688 L 32.320312 31.679688 L 32.320312 32.320312 Z M 31.679688 32.320312 "/>
<path style=" stroke:none;fill-rule:nonzero;fill:rgb(19.607843%,74.509805%,65.098041%);fill-opacity:1;" d="M 44.40625 32 C 44.40625 25.148438 38.851562 19.59375 32 19.59375 C 25.148438 19.59375 19.59375 25.148438 19.59375 32 C 19.59375 38.851562 25.148438 44.40625 32 44.40625 C 38.851562 44.40625 44.40625 38.851562 44.40625 32 Z M 44.40625 32 "/>
<path style=" stroke:none;fill-rule:nonzero;fill:rgb(100%,100%,100%);fill-opacity:1;" d="M 38.828125 27.84375 C 38.539062 27.089844 37.945312 27.210938 37.300781 27.339844 C 36.914062 27.421875 35.199219 27.921875 32.496094 30.78125 C 31.371094 31.964844 30.628906 32.910156 30.140625 33.628906 C 29.839844 33.265625 29.5 32.871094 29.140625 32.515625 C 28.035156 31.410156 26.800781 30.648438 26.75 30.621094 C 26.234375 30.304688 25.558594 30.464844 25.238281 30.984375 C 24.925781 31.5 25.085938 32.175781 25.601562 32.496094 C 25.609375 32.5 26.671875 33.15625 27.578125 34.070312 C 28.511719 35 29.355469 36.261719 29.363281 36.273438 C 29.570312 36.585938 29.914062 36.765625 30.28125 36.765625 C 30.339844 36.765625 30.40625 36.761719 30.46875 36.75 C 30.898438 36.675781 31.238281 36.355469 31.34375 35.933594 C 31.351562 35.925781 31.785156 34.71875 34.078125 32.300781 C 35.929688 30.34375 37.164062 29.726562 37.59375 29.554688 C 37.601562 29.554688 37.601562 29.554688 37.609375 29.554688 C 37.609375 29.554688 37.625 29.550781 37.648438 29.535156 C 37.726562 29.503906 37.765625 29.496094 37.765625 29.496094 C 37.746094 29.5 37.734375 29.5 37.734375 29.5 L 37.734375 29.496094 C 37.933594 29.410156 38.304688 29.25 38.308594 29.246094 C 38.863281 29.003906 39.050781 28.40625 38.828125 27.84375 Z M 38.828125 27.84375 "/>
</g>
</svg>
